<svg width="823" height="823" viewBox="0 0 823 823" fill="none" xmlns="http://www.w3.org/2000/svg">
<path d="M649.284 110.717L667.179 89.0033L690.116 108.48L671.206 129.359C674.189 132.341 677.738 135.145 680.899 138.306C684.568 141.975 688.147 145.763 691.488 149.73C693.099 151.639 694.291 151.519 695.723 149.939C697.751 147.702 699.541 145.226 701.688 143.168C705.387 139.708 709.324 136.457 713.232 133.236C713.559 133.068 713.922 132.981 714.29 132.981C714.658 132.981 715.021 133.068 715.349 133.236C720.27 139.201 725.043 145.166 729.875 151.132C731.217 152.802 732.857 154.353 733.752 155.576C730.769 158.558 728.085 161.541 725.043 163.957C721.86 166.52 718.534 168.9 715.081 171.086C712.724 172.637 712.098 174.307 714.037 176.574C717.377 180.69 720.867 184.716 724.029 188.952C725.639 191.129 726.653 193.724 728.055 196.08C729.457 198.436 731.485 198.854 734.02 196.975C740.314 192.411 746.816 188.027 753.914 183.314L770.17 209.114L745.444 223.789L759.88 251.527L785.59 240.014C789.378 248.962 793.106 257.552 796.626 266.232C796.649 266.771 796.532 267.307 796.286 267.788C796.04 268.269 795.675 268.678 795.224 268.976C787.917 271.72 780.52 274.255 773.183 276.88C772.415 277.239 771.677 277.658 770.975 278.133L777.746 300.502C778.266 302.578 778.913 304.62 779.684 306.617C779.953 307.183 781.593 307.601 782.429 307.362C788.066 305.901 793.673 304.201 799.31 302.62C801.965 301.874 804.679 301.218 807.96 300.353C810.346 310.295 812.712 320.148 815.059 329.911L792.778 334.385C787.201 335.518 787.141 335.548 787.946 341.215C789.02 349.119 790.184 357.053 791.466 365.076C791.641 365.548 791.933 365.967 792.313 366.296C792.694 366.624 793.151 366.851 793.643 366.955C799.847 366.389 806.021 365.554 812.225 364.897C814.76 364.629 817.296 364.599 820.189 364.42C820.964 374.114 821.77 384.016 822.605 394.515L794.299 395.768V406.595C794.299 410.562 794.299 414.558 794.299 418.525C794.467 420.946 794.877 423.344 795.522 425.684C795.706 426.049 795.976 426.365 796.308 426.604C796.641 426.843 797.026 426.998 797.431 427.056C803.665 427.294 809.928 427.294 816.192 427.593C818.332 427.856 820.447 428.295 822.515 428.905C821.769 438.777 821.024 448.62 820.248 458.731L792.062 455.749C791.526 459.686 790.959 463.832 790.363 467.977C789.508 473.764 788.633 479.55 787.738 485.336C787.44 487.096 787.976 487.842 789.855 488.14C797.073 489.363 804.232 490.795 811.42 492.107C812.702 492.346 813.985 492.465 815.268 492.644C812.792 502.695 810.346 512.687 807.93 522.47L797.252 519.488L783.115 515.67C781.146 515.133 780.132 515.491 779.595 517.937C779.058 520.382 776.463 522.858 778.074 525.99C774.077 528.972 775.091 533.864 773.153 537.652C772.133 539.914 771.276 542.247 770.588 544.631L797.431 554.534L785.889 582.779C778.164 579.289 770.588 575.949 763.071 572.519C760.238 571.207 759.582 571.863 758.568 574.995C756.719 579.018 754.502 582.862 751.946 586.478C749.65 590.594 747.591 594.859 745.504 598.915L770.468 613.232C764.92 622.18 759.492 630.919 754.332 639.3C751.856 637.66 749.65 636.318 747.502 634.737C743.535 631.933 739.688 628.98 735.571 626.266C730.471 622.836 729.755 623.462 726.624 628.891C723.263 634.17 719.639 639.276 715.767 644.192C714.742 645.242 713.851 646.414 713.112 647.681C713.098 648.213 713.203 648.74 713.419 649.226C713.636 649.711 713.959 650.141 714.365 650.485C720.867 655.884 727.459 661.133 734.378 666.741L714.514 689.856C708.25 683.891 702.017 678.373 696.022 672.497C694.083 670.618 693.039 671.065 691.398 672.736C684.866 679.506 678.215 686.187 671.295 693.197L690.772 714.075L667.299 733.731C665.778 731.732 664.137 729.436 662.377 727.288C658.401 722.516 654.424 717.803 650.447 713.15C650.12 712.89 649.733 712.715 649.322 712.642C648.91 712.569 648.487 712.6 648.09 712.733C640.425 717.952 632.789 723.232 625.273 728.69C624.91 729.175 624.676 729.743 624.592 730.343C624.509 730.943 624.579 731.555 624.796 732.12C629.032 738.533 633.505 744.766 637.83 751.119C638.402 752.183 638.833 753.316 639.113 754.49L613.76 769.791L599.474 745.303L571.496 759.679L583.188 785.629C574.24 789.178 565.531 792.817 556.613 796.247C556.032 796.278 555.453 796.161 554.931 795.905C554.409 795.649 553.961 795.264 553.63 794.785C550.827 786.941 548.232 779.007 545.309 770.298L515.065 780.2L522.76 807.461C517.54 808.893 512.589 810.444 507.578 811.577C503.85 812.502 500.002 812.979 496.304 814.053C493.321 814.888 492.427 814.053 492.009 811.249C490.905 804.449 489.682 797.649 488.46 790.848C487.803 787.239 486.372 786.613 482.793 787.687C479.491 788.805 476.098 789.634 472.652 790.162C467.104 790.818 461.496 790.967 455.68 791.355C456.784 801.019 457.798 810.086 458.902 820.048L428.628 822.166C428.21 812.801 427.823 803.405 427.435 794.189H395.401V822.017L368.558 820.138C365.575 819.929 364.382 819.631 365.127 815.664C366.589 807.909 366.798 799.886 367.544 791.803L335.898 786.881L330.409 814.62L300.583 807.7C302.373 801.735 304.222 795.203 306.101 788.79C306.874 786.842 307.531 784.85 308.07 782.825C308.547 780.29 306.877 779.186 304.61 778.47C296.616 775.995 288.683 773.28 280.749 770.954C280.003 770.715 278.094 772.177 277.766 773.221C274.992 780.409 272.427 787.717 269.802 794.964C269.493 795.627 269.134 796.265 268.729 796.873L240.722 785.629C244.361 777.605 247.671 770.208 251.071 762.841C252.085 760.634 251.817 759.232 249.52 758.069C241.199 753.923 232.937 749.628 224.287 745.214C219.605 753.416 215.101 761.32 210.179 770L183.753 753.535L196.877 735.46C197.145 735.103 197.295 734.655 197.563 734.297C200.218 730.897 200.218 730.569 196.817 728.093C190.136 723.232 183.425 718.46 176.804 713.538C174.656 711.957 173.821 712.375 172.121 714.522C168.601 719.325 164.545 723.739 160.787 728.362C159.564 729.883 158.55 731.553 156.999 733.82L133.615 714.135L152.883 692.749C151.123 691.467 149.483 690.393 147.992 689.14C146.256 687.757 144.622 686.252 143.1 684.636C140.117 681.206 137.135 677.567 134.003 674.167C132.392 672.408 131.378 669.872 128.037 673.422C122.052 679.23 115.77 684.726 109.217 689.886C105.459 685.352 101.433 680.49 97.2867 675.659C95.1988 673.153 92.9022 670.797 90.9635 668.202C90.7181 667.743 90.5896 667.231 90.5896 666.711C90.5896 666.19 90.7181 665.678 90.9635 665.219C97.1873 660.209 103.51 655.297 109.933 650.485C111.752 649.113 111.216 648.368 109.933 646.876C106.026 641.865 102.327 636.676 98.6287 631.516C97.0777 629.338 95.7951 626.922 94.095 624.894C93.6575 624.605 93.1514 624.436 92.6277 624.404C92.1041 624.373 91.5814 624.48 91.1124 624.715C84.6102 629.249 78.1976 633.961 71.7551 638.614C71.0128 639.082 70.2461 639.51 69.4584 639.897C64.4774 631.635 59.4367 623.343 54.5452 614.962C54.2171 614.395 54.7542 613.202 55.0822 612.397C55.0822 612.099 55.9473 612.099 56.2754 611.83C58.9597 609.563 62.688 609.444 65.2233 606.67C68.1038 604.281 71.2817 602.276 74.678 600.705C75.4833 600.257 76.3782 599.989 78.0783 599.243C76.1097 596.052 74.0815 593.278 72.441 590.027C70.8006 586.776 69.906 584.062 68.5041 581.079C67.2773 578.292 65.8621 575.591 64.2686 572.996C63.8618 572.654 63.3764 572.417 62.856 572.308C62.3355 572.199 61.7962 572.22 61.286 572.37C55.9769 574.637 50.7276 577.172 45.4484 579.528C42.9131 580.662 40.2881 581.646 37.6932 582.69C35.3668 577.232 33.0405 571.773 30.8035 566.285C29.3718 562.825 28.0295 559.336 26.9558 555.786C26.7768 555.249 27.9997 553.848 28.8349 553.549C36.023 550.925 43.241 548.419 50.4889 545.944C52.4872 545.258 52.5468 544.154 51.9205 542.245C49.4747 534.729 47.2079 527.153 44.8815 519.577C44.7259 518.542 44.4143 517.536 43.9571 516.594C43.4798 515.938 42.2867 515.223 41.6604 515.401C32.9809 517.698 24.3311 520.114 15.413 522.619C14.3392 518.056 13.3552 513.672 12.2516 509.257C11.148 504.843 10.3426 501.323 9.11967 497.327C7.89679 493.33 8.82139 492.674 12.4602 491.988C18.9624 490.735 25.4049 489.274 31.8772 487.961C33.3009 487.768 34.7358 487.669 36.1724 487.663L31.1316 455.6L3.09468 458.761L1.00698 428.547L28.5367 427.145C28.8946 417.959 29.1928 409.07 29.5805 400.152C29.5805 397.17 28.4471 395.678 25.4645 395.678H0.947266L3.15439 364.48L31.3107 367.462C32.5037 359.499 33.6668 351.714 34.8599 343.93C35.2925 342.449 35.6409 340.946 35.9037 339.426C35.9037 337.01 35.9038 334.892 32.265 334.653C27.7802 334.174 23.3282 333.427 18.9327 332.416C15.5623 331.76 12.2216 331.015 8.40386 330.209L15.4727 300.383L43.1517 308.227C46.1343 298.564 49.117 289.317 52.0996 280.101C52.6067 278.461 52.6362 277.924 50.3694 277.536C47.1703 276.667 44.0637 275.489 41.0935 274.017C36.1423 272.167 31.1614 270.407 25.9418 268.528L37.395 240.223C42.7638 242.49 47.6555 244.488 52.4575 246.606C55.6489 248.038 58.6317 249.857 61.8827 251.11C62.5986 251.378 64.6864 250.126 64.8654 249.231C66.1479 244.429 69.5779 240.79 71.5166 236.346C73.0079 232.946 74.9168 229.694 76.7064 226.443C77.6608 224.713 77.81 223.461 75.6625 222.506C72.756 221.496 69.925 220.28 67.1916 218.868C63.3141 216.541 59.7051 213.707 55.947 211.142C54.9923 210.628 53.9943 210.199 52.9643 209.86L63.9107 191.576C64.7092 190.023 65.6163 188.528 66.625 187.102C68.2058 185.104 69.9954 184.12 72.5903 185.879C78.5556 190.055 84.5206 193.992 90.2473 198.108C92.0965 199.421 93.2301 199.093 94.5425 197.243C99.9113 189.369 105.399 181.555 110.559 174.068C106.95 170.758 103.52 167.447 99.8815 164.375C96.8989 161.899 93.9163 159.811 90.9336 157.336C90.6169 156.945 90.4041 156.479 90.3154 155.984C90.2267 155.489 90.265 154.979 90.4264 154.502C95.825 147.911 101.403 141.498 106.801 134.906C108.233 133.176 108.979 133.087 110.679 134.697C116.644 140.484 122.967 146.031 129.678 152.176L151.481 129.15L132.571 108.957L156.015 89.4209L173.582 110.538L199.173 92.9106C195.535 84.1416 187.631 77.5501 183.127 68.3934L185.125 69.1689C192.105 61.7719 201.739 58.6998 209.523 52.5257C213.49 59.8033 217.547 67.1108 221.454 74.4779C223.094 77.4605 224.138 77.7587 227.151 76.0884C233.116 72.8672 239.081 69.9144 245.046 66.9616C246.101 66.7629 247.183 66.7629 248.238 66.9616L246.239 65.858C246.96 65.4421 247.708 65.0735 248.476 64.7545C251.459 63.7105 251.459 61.9509 250.087 59.4454C248.119 55.5084 246.538 51.3625 244.688 47.3658C243.167 44.1147 241.497 40.953 239.767 37.5229L268.162 25.5924L277.885 52.2273C286.833 49.5728 295.453 46.8885 304.192 44.2936C308.308 43.0707 308.248 42.9216 306.906 38.9547C305.355 34.3615 304.222 29.6191 302.91 24.9661L300.255 15.2726L330.081 7.81597C331.901 17.4201 333.661 26.6661 335.361 35.6737C341.535 34.8088 347.053 34.0632 352.511 33.1983C356.716 32.5421 360.952 31.8262 365.098 30.8717C365.963 30.6629 367.245 29.2014 367.186 28.4558C366.351 21.4466 365.307 14.4672 364.203 7.57731C363.994 6.26495 363.875 4.95265 363.636 2.98411L394.775 0.359375V28.6347H427.465L428.658 1.01547C438.918 0.0311973 448.88 2.47704 458.872 2.77531C457.828 12.4092 456.844 21.5957 455.889 30.8419L487.565 35.5545L493.113 7.96507C500.778 9.78448 507.787 11.5741 514.856 13.0356C523.088 14.7357 522.969 14.5567 520.553 22.5502C518.554 29.2015 516.944 35.972 515.154 42.7426C519.867 44.1742 524.102 45.5462 528.636 46.8288C533.17 48.1113 537.584 49.6028 542.266 50.7063C545.458 51.452 546.234 50.8554 547.307 47.0973C548.172 44.1146 548.202 40.6249 549.335 37.7019C551.113 33.6229 553.104 29.6405 555.301 25.7713L583.039 36.6282C581.16 41.0127 579.4 45.2778 577.492 49.4834C575.851 53.1222 574.091 56.6716 572.302 60.221C570.512 63.7703 573.972 63.8597 575.284 64.6352C580.683 67.8266 586.32 70.6005 591.898 73.434L599.474 77.2816L613.701 52.5854L640.067 69.139C635.086 75.9394 630.642 82.024 626.138 88.0787C623.603 91.4193 624.021 93.2088 627.391 95.4756C633.893 99.8899 640.246 104.424 646.659 109.017C647.464 109.643 648.18 110.091 649.284 110.717ZM770.11 410.77C770.796 217.883 616.117 52.1677 412.194 51.4817C207.793 50.8255 52.4573 216.272 51.8608 409.398C51.2642 602.524 206.034 769.194 410.285 769.582C614.536 769.97 770.468 604.105 770.11 410.77V410.77Z" fill="white"/>
</svg>
